<svg xmlns="http://www.w3.org/2000/svg" viewBox="0 0 32 32" fill="none">
  <!-- Снежинка: 6 лучей под 60° -->
  <g stroke="#9fc2e8" stroke-width="1.4" stroke-linecap="round" fill="none">
    <line x1="16" y1="3" x2="16" y2="29"/>
    <line x1="5.4" y1="9.5" x2="26.6" y2="22.5"/>
    <line x1="5.4" y1="22.5" x2="26.6" y2="9.5"/>
    <!-- Веточки на каждом луче -->
    <line x1="13" y1="6" x2="16" y2="9"/>
    <line x1="19" y1="6" x2="16" y2="9"/>
    <line x1="6.6" y1="11" x2="9.6" y2="13"/>
    <line x1="6.6" y1="14" x2="9.6" y2="13"/>
    <line x1="22.4" y1="13" x2="25.4" y2="11"/>
    <line x1="22.4" y1="13" x2="25.4" y2="14"/>
    <line x1="13" y1="23" x2="16" y2="26"/>
    <line x1="19" y1="23" x2="16" y2="26"/>
    <line x1="22.4" y1="19" x2="25.4" y2="21"/>
    <line x1="22.4" y1="19" x2="25.4" y2="18"/>
    <line x1="6.6" y1="21" x2="9.6" y2="19"/>
    <line x1="6.6" y1="18" x2="9.6" y2="19"/>
  </g>
  <!-- Молния по центру -->
  <path d="M18 6 L9 18 L15 18 L12 26 L23 16 L17 16 Z" fill="#f4b942"/>
</svg>