<svg xmlns="http://www.w3.org/2000/svg" viewBox="0 0 240 32" fill="none">
  <g fill="#f4b942">
    <path d="M4 4 L4 28 L10 28 L10 16 L20 16 L20 10 L10 10 L10 4 Z"/>
    <path d="M24 4 L24 28 L31 28 L31 19 L38 19 C45 19 49 16 49 11 C49 6 45 4 38 4 Z M31 9 L38 9 C40 9 42 9 42 11 C42 12 40 13 38 13 L31 13 Z"/>
    <path fill-rule="evenodd" d="M60 4 C53 4 50 7 50 16 C50 25 53 28 60 28 C67 28 70 25 70 16 C70 7 67 4 60 4 Z M60 9 C63 9 65 12 65 16 C65 20 63 23 60 23 C57 23 55 20 55 16 C55 12 57 9 60 9 Z"/>
    <path fill-rule="evenodd" d="M74 4 L74 28 L82 28 L82 12 L90 24 L98 12 L98 28 L106 28 L106 4 L98 4 L90 18 L82 4 Z"/>
  </g>
  <line x1="200" y1="4" x2="200" y2="28" stroke="#f4b942" stroke-width="1.5"/>
  <line x1="208" y1="4" x2="208" y2="28" stroke="#f4b942" stroke-width="1.5"/>
  <line x1="216" y1="4" x2="216" y2="28" stroke="#f4b942" stroke-width="1.5"/>
  <line x1="112" y1="30" x2="200" y2="30" stroke="#f4b942" stroke-width="1"/>
</svg>