<svg xmlns="http://www.w3.org/2000/svg" viewBox="0 0 220 56" fill="none">
  <g fill="#f4b942">
    <!-- Г -->
    <path d="M4 8 L4 44 L14 44 L14 24 L28 24 L28 14 L14 14 L14 8 Z"/>
    <!-- Р -->
    <path d="M36 8 L36 44 L46 44 L46 28 L56 28 C66 28 72 22 72 16 C72 10 66 8 56 8 Z M46 16 L56 16 C58 16 62 16 62 17 C62 19 58 20 56 20 L46 20 Z"/>
    <!-- О (кольцо: внешний эллипс минус внутренний) -->
    <path fill-rule="evenodd" d="M94 8 C82 8 76 14 76 24 C76 34 82 44 94 44 C106 44 112 34 112 24 C112 14 106 8 94 8 Z M94 16 C100 16 104 20 104 24 C104 28 100 32 94 32 C88 32 84 28 84 24 C84 20 88 16 94 16 Z"/>
    <!-- М : внешний прямоугольник + V-вырез (через even-odd) -->
    <path fill-rule="evenodd" d="M120 8 L120 44 L132 44 L132 22 L144 40 L156 22 L156 44 L168 44 L168 8 Z M132 8 L144 26 L156 8 Z"/>
  </g>
  <rect x="4" y="50" width="164" height="2" fill="#f4b942"/>
</svg>