<svg xmlns="http://www.w3.org/2000/svg" viewBox="0 0 260 56" fill="none">
  <g fill="#f4b942">
    <path d="M4 8 L4 44 L14 44 L14 24 L28 24 L28 14 L14 14 L14 8 Z"/>
    <path d="M36 8 L36 44 L46 44 L46 28 L56 28 C66 28 72 22 72 16 C72 10 66 8 56 8 Z M46 16 L56 16 C58 16 62 16 62 17 C62 19 58 20 56 20 L46 20 Z"/>
    <path fill-rule="evenodd" d="M112 8 C100 8 94 14 94 24 C94 34 100 44 112 44 C124 44 130 34 130 24 C130 14 124 8 112 8 Z M112 16 C118 16 122 20 122 24 C122 28 118 32 112 32 C106 32 102 28 102 24 C102 20 106 16 112 16 Z"/>
    <path fill-rule="evenodd" d="M138 8 L138 44 L150 44 L150 22 L162 40 L174 22 L174 44 L186 44 L186 8 Z M150 8 L162 26 L174 8 Z"/>
  </g>
  <!-- Молния внутри О (без fill-rule) -->
  <path d="M114 14 L106 26 L110 26 L108 34 L120 22 L114 22 Z" fill="#f4b942"/>
</svg>